<svg width="801" height="801" viewBox="0 0 801 801" fill="none" xmlns="http://www.w3.org/2000/svg">
<rect width="801" height="801" fill="white"/>
<path d="M402.505 259.645V208.479" stroke="#EBE9E9" stroke-width="5.57891" stroke-miterlimit="10" stroke-linecap="round" stroke-linejoin="round"/>
<path d="M402.505 150.224V191.947" stroke="#EBE9E9" stroke-width="5.57891" stroke-miterlimit="10" stroke-linecap="round" stroke-linejoin="round"/>
<path d="M402.505 276.963V332.066" stroke="#EBE9E9" stroke-width="5.57891" stroke-miterlimit="10" stroke-linecap="round" stroke-linejoin="round"/>
<path d="M278.127 181.712L298.598 217.918" stroke="#EBE9E9" stroke-width="5.57891" stroke-miterlimit="10" stroke-linecap="round" stroke-linejoin="round"/>
<path d="M341.103 291.92L368.661 339.156" stroke="#EBE9E9" stroke-width="5.57891" stroke-miterlimit="10" stroke-linecap="round" stroke-linejoin="round"/>
<path d="M306.466 232.88L332.443 276.966" stroke="#EBE9E9" stroke-width="5.57891" stroke-miterlimit="10" stroke-linecap="round" stroke-linejoin="round"/>
<path d="M294.658 336.004L342.674 363.555" stroke="#EBE9E9" stroke-width="5.57891" stroke-miterlimit="10" stroke-linecap="round" stroke-linejoin="round"/>
<path d="M235.618 302.154L279.698 328.131" stroke="#EBE9E9" stroke-width="5.57891" stroke-miterlimit="10" stroke-linecap="round" stroke-linejoin="round"/>
<path d="M185.237 273.027L220.662 293.492" stroke="#EBE9E9" stroke-width="5.57891" stroke-miterlimit="10" stroke-linecap="round" stroke-linejoin="round"/>
<path d="M331.657 396.618H276.554" stroke="#EBE9E9" stroke-width="5.57891" stroke-miterlimit="10" stroke-linecap="round" stroke-linejoin="round"/>
<path d="M191.534 396.618H149.811" stroke="#EBE9E9" stroke-width="5.57891" stroke-miterlimit="10" stroke-linecap="round" stroke-linejoin="round"/>
<path d="M208.066 396.618H259.232" stroke="#EBE9E9" stroke-width="5.57891" stroke-miterlimit="10" stroke-linecap="round" stroke-linejoin="round"/>
<path d="M217.512 502.104L181.307 522.575" stroke="#EBE9E9" stroke-width="5.57891" stroke-miterlimit="10" stroke-linecap="round" stroke-linejoin="round"/>
<path d="M232.469 493.444L276.555 468.249" stroke="#EBE9E9" stroke-width="5.57891" stroke-miterlimit="10" stroke-linecap="round" stroke-linejoin="round"/>
<path d="M338.742 432.042L290.719 459.594" stroke="#EBE9E9" stroke-width="5.57891" stroke-miterlimit="10" stroke-linecap="round" stroke-linejoin="round"/>
<path d="M293.084 580.037L272.619 614.674" stroke="#EBE9E9" stroke-width="5.57891" stroke-miterlimit="10" stroke-linecap="round" stroke-linejoin="round"/>
<path d="M335.593 506.04L363.144 457.236" stroke="#EBE9E9" stroke-width="5.57891" stroke-miterlimit="10" stroke-linecap="round" stroke-linejoin="round"/>
<path d="M326.933 520.209L300.957 565.076" stroke="#EBE9E9" stroke-width="5.57891" stroke-miterlimit="10" stroke-linecap="round" stroke-linejoin="round"/>
<path d="M396.208 541.464V592.636" stroke="#EBE9E9" stroke-width="5.57891" stroke-miterlimit="10" stroke-linecap="round" stroke-linejoin="round"/>
<path d="M396.208 524.145V469.036" stroke="#EBE9E9" stroke-width="5.57891" stroke-miterlimit="10" stroke-linecap="round" stroke-linejoin="round"/>
<path d="M396.208 609.163V650.886" stroke="#EBE9E9" stroke-width="5.57891" stroke-miterlimit="10" stroke-linecap="round" stroke-linejoin="round"/>
<path d="M459.184 509.188L431.632 461.172" stroke="#EBE9E9" stroke-width="5.57891" stroke-miterlimit="10" stroke-linecap="round" stroke-linejoin="round"/>
<path d="M501.693 583.186L522.164 618.611" stroke="#EBE9E9" stroke-width="5.57891" stroke-miterlimit="10" stroke-linecap="round" stroke-linejoin="round"/>
<path d="M467.843 524.145L493.825 568.224" stroke="#EBE9E9" stroke-width="5.57891" stroke-miterlimit="10" stroke-linecap="round" stroke-linejoin="round"/>
<path d="M564.669 498.955L520.589 473.76" stroke="#EBE9E9" stroke-width="5.57891" stroke-miterlimit="10" stroke-linecap="round" stroke-linejoin="round"/>
<path d="M505.629 465.105L456.825 437.547" stroke="#EBE9E9" stroke-width="5.57891" stroke-miterlimit="10" stroke-linecap="round" stroke-linejoin="round"/>
<path d="M579.626 507.614L614.264 528.085" stroke="#EBE9E9" stroke-width="5.57891" stroke-miterlimit="10" stroke-linecap="round" stroke-linejoin="round"/>
<path d="M592.221 402.916H541.049" stroke="#EBE9E9" stroke-width="5.57891" stroke-miterlimit="10" stroke-linecap="round" stroke-linejoin="round"/>
<path d="M468.63 402.916H523.739" stroke="#EBE9E9" stroke-width="5.57891" stroke-miterlimit="10" stroke-linecap="round" stroke-linejoin="round"/>
<path d="M650.474 402.916H608.751" stroke="#EBE9E9" stroke-width="5.57891" stroke-miterlimit="10" stroke-linecap="round" stroke-linejoin="round"/>
<path d="M567.818 306.877L522.951 332.854" stroke="#EBE9E9" stroke-width="5.57891" stroke-miterlimit="10" stroke-linecap="round" stroke-linejoin="round"/>
<path d="M460.758 369.066L508.774 340.728" stroke="#EBE9E9" stroke-width="5.57891" stroke-miterlimit="10" stroke-linecap="round" stroke-linejoin="round"/>
<path d="M581.987 298.218L618.199 278.534" stroke="#EBE9E9" stroke-width="5.57891" stroke-miterlimit="10" stroke-linecap="round" stroke-linejoin="round"/>
<path d="M472.566 280.112L498.548 235.246" stroke="#EBE9E9" stroke-width="5.57891" stroke-miterlimit="10" stroke-linecap="round" stroke-linejoin="round"/>
<path d="M506.416 221.072L527.674 185.647" stroke="#EBE9E9" stroke-width="5.57891" stroke-miterlimit="10" stroke-linecap="round" stroke-linejoin="round"/>
<path d="M464.694 295.069L437.137 343.085" stroke="#EBE9E9" stroke-width="5.57891" stroke-miterlimit="10" stroke-linecap="round" stroke-linejoin="round"/>
<path d="M319.062 93.5452L330.872 138.418" stroke="#EBE9E9" stroke-width="5.57891" stroke-miterlimit="10" stroke-linecap="round" stroke-linejoin="round"/>
<path d="M372.592 296.643L356.063 235.242" stroke="#EBE9E9" stroke-width="5.57891" stroke-miterlimit="10" stroke-linecap="round" stroke-linejoin="round"/>
<path d="M352.124 219.498L334.809 154.947" stroke="#EBE9E9" stroke-width="5.57891" stroke-miterlimit="10" stroke-linecap="round" stroke-linejoin="round"/>
<path d="M208.853 208.477L175.791 174.627" stroke="#EBE9E9" stroke-width="5.57891" stroke-miterlimit="10" stroke-linecap="round" stroke-linejoin="round"/>
<path d="M220.661 220.285L267.896 267.52" stroke="#EBE9E9" stroke-width="5.57891" stroke-miterlimit="10" stroke-linecap="round" stroke-linejoin="round"/>
<path d="M279.701 279.325L323.787 323.411" stroke="#EBE9E9" stroke-width="5.57891" stroke-miterlimit="10" stroke-linecap="round" stroke-linejoin="round"/>
<path d="M138.005 329.706L93.1318 317.896" stroke="#EBE9E9" stroke-width="5.57891" stroke-miterlimit="10" stroke-linecap="round" stroke-linejoin="round"/>
<path d="M154.536 334.429L219.087 351.745" stroke="#EBE9E9" stroke-width="5.57891" stroke-miterlimit="10" stroke-linecap="round" stroke-linejoin="round"/>
<path d="M235.618 356.471L296.232 372.999" stroke="#EBE9E9" stroke-width="5.57891" stroke-miterlimit="10" stroke-linecap="round" stroke-linejoin="round"/>
<path d="M296.233 428.106L234.832 443.847" stroke="#EBE9E9" stroke-width="5.57891" stroke-miterlimit="10" stroke-linecap="round" stroke-linejoin="round"/>
<path d="M93.1343 481.636L138.007 469.826" stroke="#EBE9E9" stroke-width="5.57891" stroke-miterlimit="10" stroke-linecap="round" stroke-linejoin="round"/>
<path d="M154.536 465.892L219.087 448.571" stroke="#EBE9E9" stroke-width="5.57891" stroke-miterlimit="10" stroke-linecap="round" stroke-linejoin="round"/>
<path d="M322.997 476.913L278.912 520.999" stroke="#EBE9E9" stroke-width="5.57891" stroke-miterlimit="10" stroke-linecap="round" stroke-linejoin="round"/>
<path d="M174.216 624.907L208.066 591.845" stroke="#EBE9E9" stroke-width="5.57891" stroke-miterlimit="10" stroke-linecap="round" stroke-linejoin="round"/>
<path d="M219.874 580.037L267.109 532.801" stroke="#EBE9E9" stroke-width="5.57891" stroke-miterlimit="10" stroke-linecap="round" stroke-linejoin="round"/>
<path d="M372.591 504.465L355.276 565.079" stroke="#EBE9E9" stroke-width="5.57891" stroke-miterlimit="10" stroke-linecap="round" stroke-linejoin="round"/>
<path d="M317.487 707.563L329.298 661.903" stroke="#EBE9E9" stroke-width="5.57891" stroke-miterlimit="10" stroke-linecap="round" stroke-linejoin="round"/>
<path d="M351.337 581.611L334.021 646.162" stroke="#EBE9E9" stroke-width="5.57891" stroke-miterlimit="10" stroke-linecap="round" stroke-linejoin="round"/>
<path d="M427.695 504.465L443.436 565.866" stroke="#EBE9E9" stroke-width="5.57891" stroke-miterlimit="10" stroke-linecap="round" stroke-linejoin="round"/>
<path d="M448.163 581.611L465.485 646.162" stroke="#EBE9E9" stroke-width="5.57891" stroke-miterlimit="10" stroke-linecap="round" stroke-linejoin="round"/>
<path d="M469.417 662.693L481.228 707.566" stroke="#EBE9E9" stroke-width="5.57891" stroke-miterlimit="10" stroke-linecap="round" stroke-linejoin="round"/>
<path d="M591.434 592.632L624.496 626.482" stroke="#EBE9E9" stroke-width="5.57891" stroke-miterlimit="10" stroke-linecap="round" stroke-linejoin="round"/>
<path d="M520.586 521.784L476.5 476.911" stroke="#EBE9E9" stroke-width="5.57891" stroke-miterlimit="10" stroke-linecap="round" stroke-linejoin="round"/>
<path d="M579.626 580.824L532.391 533.588" stroke="#EBE9E9" stroke-width="5.57891" stroke-miterlimit="10" stroke-linecap="round" stroke-linejoin="round"/>
<path d="M645.751 466.68L581.2 449.358" stroke="#EBE9E9" stroke-width="5.57891" stroke-miterlimit="10" stroke-linecap="round" stroke-linejoin="round"/>
<path d="M707.153 483.211L661.493 471.4" stroke="#EBE9E9" stroke-width="5.57891" stroke-miterlimit="10" stroke-linecap="round" stroke-linejoin="round"/>
<path d="M504.054 428.106L564.668 445.422" stroke="#EBE9E9" stroke-width="5.57891" stroke-miterlimit="10" stroke-linecap="round" stroke-linejoin="round"/>
<path d="M581.2 352.535L645.751 335.22" stroke="#EBE9E9" stroke-width="5.57891" stroke-miterlimit="10" stroke-linecap="round" stroke-linejoin="round"/>
<path d="M707.153 319.472L662.28 331.283" stroke="#EBE9E9" stroke-width="5.57891" stroke-miterlimit="10" stroke-linecap="round" stroke-linejoin="round"/>
<path d="M504.054 373.002L565.455 356.474" stroke="#EBE9E9" stroke-width="5.57891" stroke-miterlimit="10" stroke-linecap="round" stroke-linejoin="round"/>
<path d="M476.502 324.196L520.588 280.11" stroke="#F0ECEC" stroke-width="5.57891" stroke-miterlimit="10" stroke-linecap="round" stroke-linejoin="round"/>
<path d="M580.413 221.072L532.391 268.307" stroke="#EBE9E9" stroke-width="5.57891" stroke-miterlimit="10" stroke-linecap="round" stroke-linejoin="round"/>
<path d="M626.07 176.201L592.221 209.264" stroke="#EBE9E9" stroke-width="5.57891" stroke-miterlimit="10" stroke-linecap="round" stroke-linejoin="round"/>
<path d="M466.268 154.947L448.947 219.498" stroke="#EBE9E9" stroke-width="5.57891" stroke-miterlimit="10" stroke-linecap="round" stroke-linejoin="round"/>
<path d="M470.992 138.416L482.802 93.5427" stroke="#EBE9E9" stroke-width="5.57891" stroke-miterlimit="10" stroke-linecap="round" stroke-linejoin="round"/>
<path d="M444.227 236.029L427.699 296.643" stroke="#EBE9E9" stroke-width="5.57891" stroke-miterlimit="10" stroke-linecap="round" stroke-linejoin="round"/>
</svg>
